<svg id="visual" viewBox="0 0 900 600" width="900" height="600" xmlns="http://www.w3.org/2000/svg" xmlns:xlink="http://www.w3.org/1999/xlink" version="1.1"><g stroke-width="1" stroke-linejoin="bevel"><path d="M472 307L487 312L502 288.9Z" fill="#517db6" stroke="#517db6"></path><path d="M487 312L528 309L502 288.9Z" fill="#4b78af" stroke="#4b78af"></path><path d="M472 307L465 341.7L487 312Z" fill="#4572a8" stroke="#4572a8"></path><path d="M487 312L522 366.7L528 309Z" fill="#3f6da1" stroke="#3f6da1"></path><path d="M522 366.7L539 308.9L528 309Z" fill="#4b78af" stroke="#4b78af"></path><path d="M528 309L540 277.1L502 288.9Z" fill="#346293" stroke="#346293"></path><path d="M539 308.9L540 277.1L528 309Z" fill="#2f5d8d" stroke="#2f5d8d"></path><path d="M411 278.1L472 307L444 215.4Z" fill="#628ecb" stroke="#628ecb"></path><path d="M411 278.1L418 310L472 307Z" fill="#5c88c4" stroke="#5c88c4"></path><path d="M472 307L418 310L465 341.7Z" fill="#3f6da1" stroke="#3f6da1"></path><path d="M418 310L450 358.9L465 341.7Z" fill="#295886" stroke="#295886"></path><path d="M465 341.7L522 366.7L487 312Z" fill="#4b78af" stroke="#4b78af"></path><path d="M444 215.4L472 307L502 288.9Z" fill="#517db6" stroke="#517db6"></path><path d="M540 378.6L561 300.1L539 308.9Z" fill="#517db6" stroke="#517db6"></path><path d="M539 308.9L561 300.1L540 277.1Z" fill="#628ecb" stroke="#628ecb"></path><path d="M450 358.9L522 366.7L465 341.7Z" fill="#4572a8" stroke="#4572a8"></path><path d="M411 278.1L399 283.1L418 310Z" fill="#4b78af" stroke="#4b78af"></path><path d="M418 310L433 384.9L450 358.9Z" fill="#3f6da1" stroke="#3f6da1"></path><path d="M548 210.1L444 215.4L502 288.9Z" fill="#5683bd" stroke="#5683bd"></path><path d="M411 278.1L410 236.1L399 283.1Z" fill="#2f5d8d" stroke="#2f5d8d"></path><path d="M444 215.4L410 236.1L411 278.1Z" fill="#2f5d8d" stroke="#2f5d8d"></path><path d="M433 216.3L410 236.1L444 215.4Z" fill="#5c88c4" stroke="#5c88c4"></path><path d="M527 388.9L540 378.6L522 366.7Z" fill="#295886" stroke="#295886"></path><path d="M522 366.7L540 378.6L539 308.9Z" fill="#628ecb" stroke="#628ecb"></path><path d="M501 425.7L527 388.9L522 366.7Z" fill="#3f6da1" stroke="#3f6da1"></path><path d="M403 393.7L433 384.9L418 310Z" fill="#517db6" stroke="#517db6"></path><path d="M450 358.9L501 425.7L522 366.7Z" fill="#628ecb" stroke="#628ecb"></path><path d="M620 226.3L548 210.1L540 277.1Z" fill="#4b78af" stroke="#4b78af"></path><path d="M540 277.1L548 210.1L502 288.9Z" fill="#3f6da1" stroke="#3f6da1"></path><path d="M484 174.6L463 182.3L444 215.4Z" fill="#2f5d8d" stroke="#2f5d8d"></path><path d="M444 215.4L433 168.3L433 216.3Z" fill="#2f5d8d" stroke="#2f5d8d"></path><path d="M433 216.3L401 149.4L410 236.1Z" fill="#4b78af" stroke="#4b78af"></path><path d="M340 254.3L371 323.9L399 283.1Z" fill="#628ecb" stroke="#628ecb"></path><path d="M399 283.1L371 323.9L418 310Z" fill="#5683bd" stroke="#5683bd"></path><path d="M548 210.1L484 174.6L444 215.4Z" fill="#4b78af" stroke="#4b78af"></path><path d="M403 393.7L434 407.7L433 384.9Z" fill="#4572a8" stroke="#4572a8"></path><path d="M433 384.9L501 425.7L450 358.9Z" fill="#5683bd" stroke="#5683bd"></path><path d="M548 210.1L534 176.4L484 174.6Z" fill="#2f5d8d" stroke="#2f5d8d"></path><path d="M371 323.9L403 393.7L418 310Z" fill="#2f5d8d" stroke="#2f5d8d"></path><path d="M434 407.7L501 425.7L433 384.9Z" fill="#3f6da1" stroke="#3f6da1"></path><path d="M599 382.9L610 365.7L540 378.6Z" fill="#4b78af" stroke="#4b78af"></path><path d="M446 136.6L433 168.3L463 182.3Z" fill="#4572a8" stroke="#4572a8"></path><path d="M463 182.3L433 168.3L444 215.4Z" fill="#5683bd" stroke="#5683bd"></path><path d="M318 286.1L355 352L371 323.9Z" fill="#5683bd" stroke="#5683bd"></path><path d="M446 136.6L463 182.3L484 174.6Z" fill="#295886" stroke="#295886"></path><path d="M573 174.4L539 168.3L534 176.4Z" fill="#4b78af" stroke="#4b78af"></path><path d="M534 176.4L494 154.4L484 174.6Z" fill="#517db6" stroke="#517db6"></path><path d="M539 168.3L494 154.4L534 176.4Z" fill="#346293" stroke="#346293"></path><path d="M628 314L623 272.1L561 300.1Z" fill="#517db6" stroke="#517db6"></path><path d="M561 300.1L623 272.1L540 277.1Z" fill="#4b78af" stroke="#4b78af"></path><path d="M548 210.1L573 174.4L534 176.4Z" fill="#3f6da1" stroke="#3f6da1"></path><path d="M340 254.3L399 283.1L410 236.1Z" fill="#517db6" stroke="#517db6"></path><path d="M371 323.9L355 352L403 393.7Z" fill="#3a679a" stroke="#3a679a"></path><path d="M599 382.9L540 378.6L608 426.4Z" fill="#4b78af" stroke="#4b78af"></path><path d="M540 378.6L610 365.7L561 300.1Z" fill="#4572a8" stroke="#4572a8"></path><path d="M610 365.7L628 314L561 300.1Z" fill="#2f5d8d" stroke="#2f5d8d"></path><path d="M608 426.4L540 378.6L527 388.9Z" fill="#3a679a" stroke="#3a679a"></path><path d="M622 202.3L573 174.4L548 210.1Z" fill="#295886" stroke="#295886"></path><path d="M539 168.3L503 140.4L494 154.4Z" fill="#517db6" stroke="#517db6"></path><path d="M304 200.3L340 254.3L316 174.3Z" fill="#5c88c4" stroke="#5c88c4"></path><path d="M622 202.3L620 226.3L653 252Z" fill="#346293" stroke="#346293"></path><path d="M623 272.1L620 226.3L540 277.1Z" fill="#517db6" stroke="#517db6"></path><path d="M410 478.4L453 443.4L434 407.7Z" fill="#5683bd" stroke="#5683bd"></path><path d="M434 407.7L453 443.4L501 425.7Z" fill="#3f6da1" stroke="#3f6da1"></path><path d="M410 478.4L434 407.7L403 393.7Z" fill="#4b78af" stroke="#4b78af"></path><path d="M453 443.4L484 447.6L501 425.7Z" fill="#4b78af" stroke="#4b78af"></path><path d="M608 426.4L630 394.6L599 382.9Z" fill="#2f5d8d" stroke="#2f5d8d"></path><path d="M510 127.7L503 140.4L539 168.3Z" fill="#628ecb" stroke="#628ecb"></path><path d="M494 154.4L446 136.6L484 174.6Z" fill="#5c88c4" stroke="#5c88c4"></path><path d="M453 443.4L471 450.6L484 447.6Z" fill="#5683bd" stroke="#5683bd"></path><path d="M305 407.6L360 396.9L355 352Z" fill="#3a679a" stroke="#3a679a"></path><path d="M355 352L360 396.9L403 393.7Z" fill="#5683bd" stroke="#5683bd"></path><path d="M503 140.4L446 136.6L494 154.4Z" fill="#346293" stroke="#346293"></path><path d="M433 168.3L401 149.4L433 216.3Z" fill="#5c88c4" stroke="#5c88c4"></path><path d="M612 156.6L561 148.6L573 174.4Z" fill="#295886" stroke="#295886"></path><path d="M573 174.4L561 148.6L539 168.3Z" fill="#2f5d8d" stroke="#2f5d8d"></path><path d="M653 252L620 226.3L623 272.1Z" fill="#5c88c4" stroke="#5c88c4"></path><path d="M620 226.3L622 202.3L548 210.1Z" fill="#3f6da1" stroke="#3f6da1"></path><path d="M340 254.3L318 286.1L371 323.9Z" fill="#4b78af" stroke="#4b78af"></path><path d="M446 136.6L401 149.4L433 168.3Z" fill="#3a679a" stroke="#3a679a"></path><path d="M340 254.3L306 225.1L318 286.1Z" fill="#4b78af" stroke="#4b78af"></path><path d="M561 148.6L510 127.7L539 168.3Z" fill="#5c88c4" stroke="#5c88c4"></path><path d="M503 140.4L510 127.7L446 136.6Z" fill="#628ecb" stroke="#628ecb"></path><path d="M672 254L653 252L628 314Z" fill="#346293" stroke="#346293"></path><path d="M628 314L653 252L623 272.1Z" fill="#5683bd" stroke="#5683bd"></path><path d="M599 382.9L630 394.6L610 365.7Z" fill="#5683bd" stroke="#5683bd"></path><path d="M610 365.7L639 387.7L628 314Z" fill="#295886" stroke="#295886"></path><path d="M608 426.4L527 388.9L501 425.7Z" fill="#3a679a" stroke="#3a679a"></path><path d="M630 394.6L639 387.7L610 365.7Z" fill="#5c88c4" stroke="#5c88c4"></path><path d="M504 484.4L501 425.7L484 447.6Z" fill="#628ecb" stroke="#628ecb"></path><path d="M504 484.4L608 426.4L501 425.7Z" fill="#3a679a" stroke="#3a679a"></path><path d="M630 394.6L651 397.7L639 387.7Z" fill="#2f5d8d" stroke="#2f5d8d"></path><path d="M622 202.3L612 156.6L573 174.4Z" fill="#4572a8" stroke="#4572a8"></path><path d="M553 39.9L501 66.9L510 127.7Z" fill="#346293" stroke="#346293"></path><path d="M644 172.4L612 156.6L622 202.3Z" fill="#346293" stroke="#346293"></path><path d="M455 500.3L504 484.4L471 450.6Z" fill="#346293" stroke="#346293"></path><path d="M471 450.6L504 484.4L484 447.6Z" fill="#3a679a" stroke="#3a679a"></path><path d="M455 500.3L471 450.6L453 443.4Z" fill="#3a679a" stroke="#3a679a"></path><path d="M304 200.3L306 225.1L340 254.3Z" fill="#5683bd" stroke="#5683bd"></path><path d="M706 317.9L672 254L628 314Z" fill="#3a679a" stroke="#3a679a"></path><path d="M653 169.6L644 172.4L622 202.3Z" fill="#346293" stroke="#346293"></path><path d="M608 426.4L651 397.7L630 394.6Z" fill="#346293" stroke="#346293"></path><path d="M639 387.7L683 375.6L628 314Z" fill="#295886" stroke="#295886"></path><path d="M379 476.6L410 478.4L403 393.7Z" fill="#628ecb" stroke="#628ecb"></path><path d="M413 60.7L398 113.6L446 136.6Z" fill="#628ecb" stroke="#628ecb"></path><path d="M446 136.6L398 113.6L401 149.4Z" fill="#5c88c4" stroke="#5c88c4"></path><path d="M316 174.3L340 254.3L410 236.1Z" fill="#628ecb" stroke="#628ecb"></path><path d="M653 169.6L622 202.3L679 172.4Z" fill="#5683bd" stroke="#5683bd"></path><path d="M316 174.3L410 236.1L401 149.4Z" fill="#4572a8" stroke="#4572a8"></path><path d="M271 309L318 286.1L255 291.9Z" fill="#346293" stroke="#346293"></path><path d="M271 309L284 343L318 286.1Z" fill="#5683bd" stroke="#5683bd"></path><path d="M318 286.1L284 343L355 352Z" fill="#5c88c4" stroke="#5c88c4"></path><path d="M379 476.6L403 484.3L410 478.4Z" fill="#3a679a" stroke="#3a679a"></path><path d="M398 113.6L316 174.3L401 149.4Z" fill="#3a679a" stroke="#3a679a"></path><path d="M379 476.6L403 393.7L360 396.9Z" fill="#5683bd" stroke="#5683bd"></path><path d="M410 478.4L455 500.3L453 443.4Z" fill="#346293" stroke="#346293"></path><path d="M284 343L287 356.7L355 352Z" fill="#346293" stroke="#346293"></path><path d="M400 517.3L455 500.3L410 478.4Z" fill="#517db6" stroke="#517db6"></path><path d="M679 172.4L622 202.3L653 252Z" fill="#5683bd" stroke="#5683bd"></path><path d="M644 172.4L634 137.7L612 156.6Z" fill="#5683bd" stroke="#5683bd"></path><path d="M305 407.6L379 476.6L360 396.9Z" fill="#5683bd" stroke="#5683bd"></path><path d="M298 402.6L305 407.6L355 352Z" fill="#4b78af" stroke="#4b78af"></path><path d="M523 521.1L523 504.3L504 484.4Z" fill="#346293" stroke="#346293"></path><path d="M504 484.4L523 504.3L608 426.4Z" fill="#3f6da1" stroke="#3f6da1"></path><path d="M608 426.4L630 461.6L651 397.7Z" fill="#628ecb" stroke="#628ecb"></path><path d="M255 291.9L318 286.1L306 225.1Z" fill="#628ecb" stroke="#628ecb"></path><path d="M237 387.6L298 402.6L287 356.7Z" fill="#4b78af" stroke="#4b78af"></path><path d="M704 418.4L683 375.6L651 397.7Z" fill="#4b78af" stroke="#4b78af"></path><path d="M651 397.7L683 375.6L639 387.7Z" fill="#517db6" stroke="#517db6"></path><path d="M270 431.6L298 402.6L237 387.6Z" fill="#517db6" stroke="#517db6"></path><path d="M287 356.7L298 402.6L355 352Z" fill="#5683bd" stroke="#5683bd"></path><path d="M350 496.4L400 517.3L379 476.6Z" fill="#3a679a" stroke="#3a679a"></path><path d="M653 169.6L634 137.7L644 172.4Z" fill="#517db6" stroke="#517db6"></path><path d="M612 156.6L634 137.7L561 148.6Z" fill="#5c88c4" stroke="#5c88c4"></path><path d="M510 127.7L501 66.9L446 136.6Z" fill="#5683bd" stroke="#5683bd"></path><path d="M628 481.3L630 461.6L608 426.4Z" fill="#295886" stroke="#295886"></path><path d="M683 375.6L706 317.9L628 314Z" fill="#4572a8" stroke="#4572a8"></path><path d="M672 254L679 172.4L653 252Z" fill="#295886" stroke="#295886"></path><path d="M553 39.9L510 127.7L561 148.6Z" fill="#3f6da1" stroke="#3f6da1"></path><path d="M710 234.1L679 172.4L672 254Z" fill="#3f6da1" stroke="#3f6da1"></path><path d="M653 169.6L669 123.7L634 137.7Z" fill="#4572a8" stroke="#4572a8"></path><path d="M261 212.4L306 225.1L304 200.3Z" fill="#517db6" stroke="#517db6"></path><path d="M261 212.4L255 291.9L306 225.1Z" fill="#295886" stroke="#295886"></path><path d="M271 309L233 353.9L284 343Z" fill="#3f6da1" stroke="#3f6da1"></path><path d="M455 500.3L523 521.1L504 484.4Z" fill="#517db6" stroke="#517db6"></path><path d="M584 514.4L628 481.3L608 426.4Z" fill="#295886" stroke="#295886"></path><path d="M723 295.1L710 234.1L672 254Z" fill="#295886" stroke="#295886"></path><path d="M413 60.7L386 82.6L398 113.6Z" fill="#628ecb" stroke="#628ecb"></path><path d="M398 113.6L326 84.6L316 174.3Z" fill="#2f5d8d" stroke="#2f5d8d"></path><path d="M523 521.1L536 524.1L523 504.3Z" fill="#3f6da1" stroke="#3f6da1"></path><path d="M584 514.4L608 426.4L523 504.3Z" fill="#5683bd" stroke="#5683bd"></path><path d="M630 461.6L704 418.4L651 397.7Z" fill="#5683bd" stroke="#5683bd"></path><path d="M413 60.7L383 78.9L386 82.6Z" fill="#4572a8" stroke="#4572a8"></path><path d="M386 82.6L326 84.6L398 113.6Z" fill="#517db6" stroke="#517db6"></path><path d="M260 198.3L304 200.3L316 174.3Z" fill="#517db6" stroke="#517db6"></path><path d="M260 198.3L261 212.4L304 200.3Z" fill="#346293" stroke="#346293"></path><path d="M728 321.9L723 295.1L706 317.9Z" fill="#517db6" stroke="#517db6"></path><path d="M706 317.9L723 295.1L672 254Z" fill="#346293" stroke="#346293"></path><path d="M403 484.3L400 517.3L410 478.4Z" fill="#517db6" stroke="#517db6"></path><path d="M455 500.3L441 543.1L523 521.1Z" fill="#5c88c4" stroke="#5c88c4"></path><path d="M501 596.1L563 562.3L536 524.1Z" fill="#4572a8" stroke="#4572a8"></path><path d="M379 476.6L400 517.3L403 484.3Z" fill="#517db6" stroke="#517db6"></path><path d="M350 496.4L379 476.6L305 407.6Z" fill="#517db6" stroke="#517db6"></path><path d="M536 524.1L584 514.4L523 504.3Z" fill="#4572a8" stroke="#4572a8"></path><path d="M333 502.4L350 496.4L305 407.6Z" fill="#4b78af" stroke="#4b78af"></path><path d="M683 375.6L726 329L706 317.9Z" fill="#4572a8" stroke="#4572a8"></path><path d="M743 383.6L726 329L683 375.6Z" fill="#4572a8" stroke="#4572a8"></path><path d="M450 46.7L413 60.7L446 136.6Z" fill="#5c88c4" stroke="#5c88c4"></path><path d="M264 133.7L260 198.3L316 174.3Z" fill="#3f6da1" stroke="#3f6da1"></path><path d="M210 303L233 353.9L255 291.9Z" fill="#295886" stroke="#295886"></path><path d="M553 39.9L487 49.7L501 66.9Z" fill="#2f5d8d" stroke="#2f5d8d"></path><path d="M501 66.9L450 46.7L446 136.6Z" fill="#3f6da1" stroke="#3f6da1"></path><path d="M726 329L728 321.9L706 317.9Z" fill="#4b78af" stroke="#4b78af"></path><path d="M487 49.7L450 46.7L501 66.9Z" fill="#628ecb" stroke="#628ecb"></path><path d="M679 172.4L669 123.7L653 169.6Z" fill="#3a679a" stroke="#3a679a"></path><path d="M634 137.7L629 69.7L561 148.6Z" fill="#4b78af" stroke="#4b78af"></path><path d="M732 181.6L669 123.7L679 172.4Z" fill="#4572a8" stroke="#4572a8"></path><path d="M722 454.4L704 418.4L713 470.4Z" fill="#3a679a" stroke="#3a679a"></path><path d="M726 329L749 312.9L728 321.9Z" fill="#3a679a" stroke="#3a679a"></path><path d="M420 569.3L441 543.1L400 517.3Z" fill="#346293" stroke="#346293"></path><path d="M400 517.3L441 543.1L455 500.3Z" fill="#346293" stroke="#346293"></path><path d="M584 514.4L629 502.1L628 481.3Z" fill="#346293" stroke="#346293"></path><path d="M628 481.3L646 500.4L630 461.6Z" fill="#295886" stroke="#295886"></path><path d="M233 353.9L287 356.7L284 343Z" fill="#346293" stroke="#346293"></path><path d="M298 402.6L270 431.6L305 407.6Z" fill="#5c88c4" stroke="#5c88c4"></path><path d="M755 224.3L729 220.3L766 252.3Z" fill="#3a679a" stroke="#3a679a"></path><path d="M710 234.1L731 205.1L679 172.4Z" fill="#5c88c4" stroke="#5c88c4"></path><path d="M729 220.3L710 234.1L766 252.3Z" fill="#517db6" stroke="#517db6"></path><path d="M270 431.6L333 502.4L305 407.6Z" fill="#346293" stroke="#346293"></path><path d="M336 564.3L373 581.1L400 517.3Z" fill="#3f6da1" stroke="#3f6da1"></path><path d="M669 123.7L642 89.6L634 137.7Z" fill="#346293" stroke="#346293"></path><path d="M417 -10.1L430 41.7L450 46.7Z" fill="#628ecb" stroke="#628ecb"></path><path d="M450 46.7L430 41.7L413 60.7Z" fill="#3a679a" stroke="#3a679a"></path><path d="M413 60.7L393 0L383 78.9Z" fill="#346293" stroke="#346293"></path><path d="M222 246.1L255 291.9L261 212.4Z" fill="#4b78af" stroke="#4b78af"></path><path d="M255 291.9L233 353.9L271 309Z" fill="#2f5d8d" stroke="#2f5d8d"></path><path d="M755 224.3L731 205.1L729 220.3Z" fill="#4572a8" stroke="#4572a8"></path><path d="M729 220.3L731 205.1L710 234.1Z" fill="#2f5d8d" stroke="#2f5d8d"></path><path d="M669 514.1L646 500.4L629 502.1Z" fill="#517db6" stroke="#517db6"></path><path d="M629 502.1L646 500.4L628 481.3Z" fill="#4b78af" stroke="#4b78af"></path><path d="M361 0L326 84.6L383 78.9Z" fill="#5c88c4" stroke="#5c88c4"></path><path d="M383 78.9L326 84.6L386 82.6Z" fill="#295886" stroke="#295886"></path><path d="M629 69.7L553 39.9L561 148.6Z" fill="#295886" stroke="#295886"></path><path d="M487 49.7L493 0L450 46.7Z" fill="#3f6da1" stroke="#3f6da1"></path><path d="M233 353.9L237 387.6L287 356.7Z" fill="#346293" stroke="#346293"></path><path d="M770 353.7L749 312.9L726 329Z" fill="#517db6" stroke="#517db6"></path><path d="M728 321.9L749 312.9L723 295.1Z" fill="#4b78af" stroke="#4b78af"></path><path d="M647 66.9L629 69.7L642 89.6Z" fill="#3a679a" stroke="#3a679a"></path><path d="M642 89.6L629 69.7L634 137.7Z" fill="#5c88c4" stroke="#5c88c4"></path><path d="M647 66.9L642 89.6L667 61.9Z" fill="#517db6" stroke="#517db6"></path><path d="M210 226.4L261 212.4L260 198.3Z" fill="#346293" stroke="#346293"></path><path d="M210 226.4L222 246.1L261 212.4Z" fill="#5c88c4" stroke="#5c88c4"></path><path d="M761 199.4L732 181.6L731 205.1Z" fill="#628ecb" stroke="#628ecb"></path><path d="M731 205.1L732 181.6L679 172.4Z" fill="#5c88c4" stroke="#5c88c4"></path><path d="M265 127.4L264 133.7L316 174.3Z" fill="#628ecb" stroke="#628ecb"></path><path d="M729 432.7L743 383.6L704 418.4Z" fill="#2f5d8d" stroke="#2f5d8d"></path><path d="M704 418.4L743 383.6L683 375.6Z" fill="#3f6da1" stroke="#3f6da1"></path><path d="M233 353.9L222 374.7L237 387.6Z" fill="#517db6" stroke="#517db6"></path><path d="M237 387.6L208 414.7L270 431.6Z" fill="#4b78af" stroke="#4b78af"></path><path d="M197 377.9L222 374.7L233 353.9Z" fill="#346293" stroke="#346293"></path><path d="M204 285L210 303L255 291.9Z" fill="#4572a8" stroke="#4572a8"></path><path d="M629 69.7L574 33.9L553 39.9Z" fill="#5683bd" stroke="#5683bd"></path><path d="M529 0L493 0L487 49.7Z" fill="#5c88c4" stroke="#5c88c4"></path><path d="M290 87.9L265 127.4L316 174.3Z" fill="#3f6da1" stroke="#3f6da1"></path><path d="M202 163.6L210 226.4L260 198.3Z" fill="#3f6da1" stroke="#3f6da1"></path><path d="M766 252.3L710 234.1L723 295.1Z" fill="#346293" stroke="#346293"></path><path d="M667 61.9L642 89.6L704 93.9Z" fill="#628ecb" stroke="#628ecb"></path><path d="M629 69.7L642 0L574 33.9Z" fill="#5683bd" stroke="#5683bd"></path><path d="M536 524.1L563 562.3L584 514.4Z" fill="#3f6da1" stroke="#3f6da1"></path><path d="M584 514.4L623 600L629 502.1Z" fill="#3a679a" stroke="#3a679a"></path><path d="M501 596.1L536 524.1L523 521.1Z" fill="#295886" stroke="#295886"></path><path d="M170 236.3L204 285L222 246.1Z" fill="#517db6" stroke="#517db6"></path><path d="M222 246.1L204 285L255 291.9Z" fill="#517db6" stroke="#517db6"></path><path d="M173 354.9L197 377.9L233 353.9Z" fill="#5683bd" stroke="#5683bd"></path><path d="M722 454.4L729 432.7L704 418.4Z" fill="#4572a8" stroke="#4572a8"></path><path d="M373 581.1L420 569.3L400 517.3Z" fill="#2f5d8d" stroke="#2f5d8d"></path><path d="M441 543.1L501 596.1L523 521.1Z" fill="#3f6da1" stroke="#3f6da1"></path><path d="M202 163.6L260 198.3L264 133.7Z" fill="#295886" stroke="#295886"></path><path d="M272 70.7L290 87.9L326 84.6Z" fill="#517db6" stroke="#517db6"></path><path d="M326 84.6L290 87.9L316 174.3Z" fill="#517db6" stroke="#517db6"></path><path d="M749 312.9L766 252.3L723 295.1Z" fill="#517db6" stroke="#517db6"></path><path d="M808 249.3L766 252.3L817 326Z" fill="#3f6da1" stroke="#3f6da1"></path><path d="M270 431.6L299 511.1L333 502.4Z" fill="#4b78af" stroke="#4b78af"></path><path d="M336 564.3L400 517.3L350 496.4Z" fill="#3f6da1" stroke="#3f6da1"></path><path d="M227 477.4L299 511.1L270 431.6Z" fill="#2f5d8d" stroke="#2f5d8d"></path><path d="M290 87.9L255 123.7L265 127.4Z" fill="#5c88c4" stroke="#5c88c4"></path><path d="M265 127.4L255 123.7L264 133.7Z" fill="#3f6da1" stroke="#3f6da1"></path><path d="M713 470.4L630 461.6L646 500.4Z" fill="#346293" stroke="#346293"></path><path d="M713 470.4L704 418.4L630 461.6Z" fill="#295886" stroke="#295886"></path><path d="M623 600L669 514.1L629 502.1Z" fill="#3f6da1" stroke="#3f6da1"></path><path d="M669 514.1L713 470.4L646 500.4Z" fill="#4572a8" stroke="#4572a8"></path><path d="M777 388.9L743 383.6L729 432.7Z" fill="#517db6" stroke="#517db6"></path><path d="M777 388.9L770 353.7L743 383.6Z" fill="#2f5d8d" stroke="#2f5d8d"></path><path d="M743 383.6L770 353.7L726 329Z" fill="#517db6" stroke="#517db6"></path><path d="M755 224.3L761 199.4L731 205.1Z" fill="#4b78af" stroke="#4b78af"></path><path d="M704 93.9L642 89.6L669 123.7Z" fill="#2f5d8d" stroke="#2f5d8d"></path><path d="M817 227.3L761 199.4L755 224.3Z" fill="#3f6da1" stroke="#3f6da1"></path><path d="M529 0L487 49.7L553 39.9Z" fill="#2f5d8d" stroke="#2f5d8d"></path><path d="M430 41.7L395 0L413 60.7Z" fill="#295886" stroke="#295886"></path><path d="M704 93.9L669 123.7L732 181.6Z" fill="#4b78af" stroke="#4b78af"></path><path d="M647 66.9L642 0L629 69.7Z" fill="#628ecb" stroke="#628ecb"></path><path d="M554 0L529 0L553 39.9Z" fill="#5683bd" stroke="#5683bd"></path><path d="M774 125.4L704 93.9L732 181.6Z" fill="#3f6da1" stroke="#3f6da1"></path><path d="M554 0L553 39.9L574 33.9Z" fill="#5683bd" stroke="#5683bd"></path><path d="M173 354.9L233 353.9L210 303Z" fill="#5c88c4" stroke="#5c88c4"></path><path d="M222 374.7L208 414.7L237 387.6Z" fill="#346293" stroke="#346293"></path><path d="M197 377.9L208 414.7L222 374.7Z" fill="#2f5d8d" stroke="#2f5d8d"></path><path d="M642 0L554 0L574 33.9Z" fill="#4b78af" stroke="#4b78af"></path><path d="M496 600L501 596.1L461 600Z" fill="#4572a8" stroke="#4572a8"></path><path d="M697 547.3L698 532.3L669 514.1Z" fill="#3f6da1" stroke="#3f6da1"></path><path d="M461 600L501 596.1L441 543.1Z" fill="#4572a8" stroke="#4572a8"></path><path d="M501 596.1L587 600L563 562.3Z" fill="#5c88c4" stroke="#5c88c4"></path><path d="M440 600L461 600L441 543.1Z" fill="#4572a8" stroke="#4572a8"></path><path d="M440 600L441 543.1L420 569.3Z" fill="#517db6" stroke="#517db6"></path><path d="M753 475.6L729 432.7L722 454.4Z" fill="#3f6da1" stroke="#3f6da1"></path><path d="M753 475.6L777 388.9L729 432.7Z" fill="#517db6" stroke="#517db6"></path><path d="M817 326L766 252.3L749 312.9Z" fill="#5683bd" stroke="#5683bd"></path><path d="M417 -10.1L395 0L430 41.7Z" fill="#628ecb" stroke="#628ecb"></path><path d="M395 0L393 0L413 60.7Z" fill="#517db6" stroke="#517db6"></path><path d="M336 564.3L350 496.4L333 502.4Z" fill="#2f5d8d" stroke="#2f5d8d"></path><path d="M304 0L272 70.7L326 84.6Z" fill="#5683bd" stroke="#5683bd"></path><path d="M290 87.9L253 81.6L255 123.7Z" fill="#295886" stroke="#295886"></path><path d="M255 123.7L202 163.6L264 133.7Z" fill="#4572a8" stroke="#4572a8"></path><path d="M268 529.1L336 564.3L299 511.1Z" fill="#2f5d8d" stroke="#2f5d8d"></path><path d="M299 511.1L336 564.3L333 502.4Z" fill="#346293" stroke="#346293"></path><path d="M817 227.3L766 167.6L761 199.4Z" fill="#5c88c4" stroke="#5c88c4"></path><path d="M761 199.4L766 167.6L732 181.6Z" fill="#3a679a" stroke="#3a679a"></path><path d="M808 249.3L755 224.3L766 252.3Z" fill="#295886" stroke="#295886"></path><path d="M421 600L440 600L420 569.3Z" fill="#517db6" stroke="#517db6"></path><path d="M209 96.6L202 163.6L255 123.7Z" fill="#2f5d8d" stroke="#2f5d8d"></path><path d="M156 303L210 303L204 285Z" fill="#295886" stroke="#295886"></path><path d="M153 309.1L173 354.9L210 303Z" fill="#3f6da1" stroke="#3f6da1"></path><path d="M395 0L397 -9.1L393 0Z" fill="#3a679a" stroke="#3a679a"></path><path d="M493 0L417 -10.1L450 46.7Z" fill="#4b78af" stroke="#4b78af"></path><path d="M529 0L417 -10.1L493 0Z" fill="#5c88c4" stroke="#5c88c4"></path><path d="M554 0L417 -10.1L529 0Z" fill="#346293" stroke="#346293"></path><path d="M410 600L421 600L420 569.3Z" fill="#5c88c4" stroke="#5c88c4"></path><path d="M209 96.6L253 81.6L214 79.9Z" fill="#5683bd" stroke="#5683bd"></path><path d="M272 70.7L253 81.6L290 87.9Z" fill="#4572a8" stroke="#4572a8"></path><path d="M375 602.1L410 600L373 581.1Z" fill="#3a679a" stroke="#3a679a"></path><path d="M373 581.1L410 600L420 569.3Z" fill="#628ecb" stroke="#628ecb"></path><path d="M417 -10.1L397 -9.1L395 0Z" fill="#4572a8" stroke="#4572a8"></path><path d="M393 0L361 0L383 78.9Z" fill="#3f6da1" stroke="#3f6da1"></path><path d="M199 452.4L227 477.4L270 431.6Z" fill="#3a679a" stroke="#3a679a"></path><path d="M170 236.3L222 246.1L210 226.4Z" fill="#295886" stroke="#295886"></path><path d="M197 377.9L172 376.6L208 414.7Z" fill="#5683bd" stroke="#5683bd"></path><path d="M208 414.7L199 452.4L270 431.6Z" fill="#628ecb" stroke="#628ecb"></path><path d="M397 -9.1L361 0L393 0Z" fill="#3a679a" stroke="#3a679a"></path><path d="M227 477.4L268 529.1L299 511.1Z" fill="#295886" stroke="#295886"></path><path d="M623 600L584 514.4L563 562.3Z" fill="#3f6da1" stroke="#3f6da1"></path><path d="M669 514.1L698 532.3L713 470.4Z" fill="#3f6da1" stroke="#3f6da1"></path><path d="M713 470.4L753 475.6L722 454.4Z" fill="#3a679a" stroke="#3a679a"></path><path d="M157 201.4L170 236.3L210 226.4Z" fill="#2f5d8d" stroke="#2f5d8d"></path><path d="M496 600L587 600L501 596.1Z" fill="#5683bd" stroke="#5683bd"></path><path d="M154 421.4L172 376.6L85 406.6Z" fill="#5c88c4" stroke="#5c88c4"></path><path d="M173 354.9L172 376.6L197 377.9Z" fill="#4b78af" stroke="#4b78af"></path><path d="M698 532.3L753 475.6L713 470.4Z" fill="#5c88c4" stroke="#5c88c4"></path><path d="M587 600L595 600L563 562.3Z" fill="#517db6" stroke="#517db6"></path><path d="M817 326L749 312.9L770 353.7Z" fill="#2f5d8d" stroke="#2f5d8d"></path><path d="M173 430.7L199 452.4L208 414.7Z" fill="#628ecb" stroke="#628ecb"></path><path d="M227 477.4L245 544.3L268 529.1Z" fill="#295886" stroke="#295886"></path><path d="M322 600L375 602.1L373 581.1Z" fill="#4b78af" stroke="#4b78af"></path><path d="M410 600L375 602.1L421 600Z" fill="#5c88c4" stroke="#5c88c4"></path><path d="M421 600L375 602.1L440 600Z" fill="#2f5d8d" stroke="#2f5d8d"></path><path d="M440 600L375 602.1L461 600Z" fill="#3a679a" stroke="#3a679a"></path><path d="M461 600L375 602.1L496 600Z" fill="#517db6" stroke="#517db6"></path><path d="M496 600L375 602.1L587 600Z" fill="#2f5d8d" stroke="#2f5d8d"></path><path d="M587 600L375 602.1L595 600Z" fill="#628ecb" stroke="#628ecb"></path><path d="M322 600L373 581.1L336 564.3Z" fill="#628ecb" stroke="#628ecb"></path><path d="M170 236.3L156 303L204 285Z" fill="#4b78af" stroke="#4b78af"></path><path d="M176 124.7L179 169.4L202 163.6Z" fill="#4b78af" stroke="#4b78af"></path><path d="M202 163.6L179 169.4L210 226.4Z" fill="#5c88c4" stroke="#5c88c4"></path><path d="M76 259L153 309.1L156 303Z" fill="#628ecb" stroke="#628ecb"></path><path d="M623 600L697 547.3L669 514.1Z" fill="#295886" stroke="#295886"></path><path d="M803 502.4L809 490.4L753 475.6Z" fill="#3f6da1" stroke="#3f6da1"></path><path d="M704 93.9L726 66.9L667 61.9Z" fill="#2f5d8d" stroke="#2f5d8d"></path><path d="M667 61.9L642 0L647 66.9Z" fill="#3f6da1" stroke="#3f6da1"></path><path d="M767 98.7L726 66.9L704 93.9Z" fill="#346293" stroke="#346293"></path><path d="M774 125.4L732 181.6L766 167.6Z" fill="#5c88c4" stroke="#5c88c4"></path><path d="M116 223.1L156 303L170 236.3Z" fill="#4572a8" stroke="#4572a8"></path><path d="M156 303L153 309.1L210 303Z" fill="#2f5d8d" stroke="#2f5d8d"></path><path d="M697 0L642 0L667 61.9Z" fill="#628ecb" stroke="#628ecb"></path><path d="M554 0L642 0L417 -10.1Z" fill="#295886" stroke="#295886"></path><path d="M816 366.7L770 353.7L777 388.9Z" fill="#5c88c4" stroke="#5c88c4"></path><path d="M821 355.9L817 326L770 353.7Z" fill="#3a679a" stroke="#3a679a"></path><path d="M812 116.4L774 125.4L819 121.7Z" fill="#2f5d8d" stroke="#2f5d8d"></path><path d="M375 602.1L623 600L595 600Z" fill="#4b78af" stroke="#4b78af"></path><path d="M595 600L623 600L563 562.3Z" fill="#295886" stroke="#295886"></path><path d="M820 241.1L817 227.3L808 249.3Z" fill="#2f5d8d" stroke="#2f5d8d"></path><path d="M808 249.3L817 227.3L755 224.3Z" fill="#517db6" stroke="#517db6"></path><path d="M253 81.6L209 96.6L255 123.7Z" fill="#5c88c4" stroke="#5c88c4"></path><path d="M214 79.9L253 81.6L224 0Z" fill="#4b78af" stroke="#4b78af"></path><path d="M821 407.6L816 366.7L777 388.9Z" fill="#3f6da1" stroke="#3f6da1"></path><path d="M817 326L820 241.1L808 249.3Z" fill="#4572a8" stroke="#4572a8"></path><path d="M900 306L820 241.1L817 326Z" fill="#5683bd" stroke="#5683bd"></path><path d="M172 376.6L173 430.7L208 414.7Z" fill="#295886" stroke="#295886"></path><path d="M197 517.4L245 544.3L227 477.4Z" fill="#5683bd" stroke="#5683bd"></path><path d="M154 421.4L173 430.7L172 376.6Z" fill="#346293" stroke="#346293"></path><path d="M136 188.3L157 201.4L179 169.4Z" fill="#628ecb" stroke="#628ecb"></path><path d="M179 169.4L157 201.4L210 226.4Z" fill="#517db6" stroke="#517db6"></path><path d="M816 366.7L821 355.9L770 353.7Z" fill="#2f5d8d" stroke="#2f5d8d"></path><path d="M769 84.6L767 98.7L795 97.7Z" fill="#517db6" stroke="#517db6"></path><path d="M774 125.4L767 98.7L704 93.9Z" fill="#4b78af" stroke="#4b78af"></path><path d="M726 66.9L697 0L667 61.9Z" fill="#295886" stroke="#295886"></path><path d="M397 -9.1L304 0L361 0Z" fill="#3f6da1" stroke="#3f6da1"></path><path d="M361 0L304 0L326 84.6Z" fill="#628ecb" stroke="#628ecb"></path><path d="M224 0L253 81.6L272 70.7Z" fill="#3f6da1" stroke="#3f6da1"></path><path d="M209 96.6L176 124.7L202 163.6Z" fill="#628ecb" stroke="#628ecb"></path><path d="M197 517.4L227 477.4L199 452.4Z" fill="#346293" stroke="#346293"></path><path d="M289 589.1L322 600L336 564.3Z" fill="#3a679a" stroke="#3a679a"></path><path d="M289 589.1L336 564.3L268 529.1Z" fill="#5c88c4" stroke="#5c88c4"></path><path d="M180 81.9L176 124.7L209 96.6Z" fill="#517db6" stroke="#517db6"></path><path d="M795 97.7L767 98.7L774 125.4Z" fill="#5683bd" stroke="#5683bd"></path><path d="M767 98.7L769 84.6L726 66.9Z" fill="#4572a8" stroke="#4572a8"></path><path d="M245 544.3L289 589.1L268 529.1Z" fill="#4572a8" stroke="#4572a8"></path><path d="M101 423.7L154 421.4L85 406.6Z" fill="#4572a8" stroke="#4572a8"></path><path d="M159 467.3L197 517.4L199 452.4Z" fill="#628ecb" stroke="#628ecb"></path><path d="M809 490.4L821 407.6L753 475.6Z" fill="#346293" stroke="#346293"></path><path d="M753 475.6L821 407.6L777 388.9Z" fill="#2f5d8d" stroke="#2f5d8d"></path><path d="M816 366.7L839 353L821 355.9Z" fill="#3a679a" stroke="#3a679a"></path><path d="M821 407.6L839 353L816 366.7Z" fill="#3f6da1" stroke="#3f6da1"></path><path d="M821 355.9L839 353L817 326Z" fill="#517db6" stroke="#517db6"></path><path d="M724 0L697 0L726 66.9Z" fill="#517db6" stroke="#517db6"></path><path d="M642 0L697 0L417 -10.1Z" fill="#3f6da1" stroke="#3f6da1"></path><path d="M159 467.3L199 452.4L173 430.7Z" fill="#4b78af" stroke="#4b78af"></path><path d="M245 544.3L235 564.3L289 589.1Z" fill="#4572a8" stroke="#4572a8"></path><path d="M136 163.3L136 188.3L179 169.4Z" fill="#4572a8" stroke="#4572a8"></path><path d="M157 201.4L116 223.1L170 236.3Z" fill="#517db6" stroke="#517db6"></path><path d="M85 406.6L172 376.6L173 354.9Z" fill="#4b78af" stroke="#4b78af"></path><path d="M623 600L684 600L697 547.3Z" fill="#4572a8" stroke="#4572a8"></path><path d="M803 502.4L753 475.6L806 512.3Z" fill="#295886" stroke="#295886"></path><path d="M710 600.1L684 600L623 600Z" fill="#346293" stroke="#346293"></path><path d="M812 116.4L795 97.7L774 125.4Z" fill="#2f5d8d" stroke="#2f5d8d"></path><path d="M750 0L724 0L726 66.9Z" fill="#5c88c4" stroke="#5c88c4"></path><path d="M774 125.4L766 167.6L819 121.7Z" fill="#3f6da1" stroke="#3f6da1"></path><path d="M197 517.4L235 564.3L245 544.3Z" fill="#3f6da1" stroke="#3f6da1"></path><path d="M154 421.4L159 467.3L173 430.7Z" fill="#346293" stroke="#346293"></path><path d="M214 79.9L180 81.9L209 96.6Z" fill="#346293" stroke="#346293"></path><path d="M176 124.7L136 163.3L179 169.4Z" fill="#628ecb" stroke="#628ecb"></path><path d="M200 0L180 81.9L214 79.9Z" fill="#3a679a" stroke="#3a679a"></path><path d="M131 97.9L136 163.3L176 124.7Z" fill="#5683bd" stroke="#5683bd"></path><path d="M819 121.7L766 167.6L856 183.6Z" fill="#4b78af" stroke="#4b78af"></path><path d="M766 167.6L817 227.3L856 183.6Z" fill="#3a679a" stroke="#3a679a"></path><path d="M97 205.4L116 223.1L136 188.3Z" fill="#3f6da1" stroke="#3f6da1"></path><path d="M136 188.3L116 223.1L157 201.4Z" fill="#3a679a" stroke="#3a679a"></path><path d="M154 421.4L101 423.7L159 467.3Z" fill="#3f6da1" stroke="#3f6da1"></path><path d="M823 105.7L819 121.7L900 126.6Z" fill="#295886" stroke="#295886"></path><path d="M812 116.4L823 105.7L795 97.7Z" fill="#2f5d8d" stroke="#2f5d8d"></path><path d="M180 81.9L167 89.7L176 124.7Z" fill="#4572a8" stroke="#4572a8"></path><path d="M131 97.9L167 89.7L109 83.6Z" fill="#5683bd" stroke="#5683bd"></path><path d="M750 0L726 66.9L769 84.6Z" fill="#517db6" stroke="#517db6"></path><path d="M697 0L724 0L417 -10.1Z" fill="#3f6da1" stroke="#3f6da1"></path><path d="M750 0L769 84.6L807 2.9Z" fill="#517db6" stroke="#517db6"></path><path d="M753 475.6L698 532.3L806 512.3Z" fill="#4b78af" stroke="#4b78af"></path><path d="M821 407.6L854 419.6L839 353Z" fill="#4572a8" stroke="#4572a8"></path><path d="M375 602.1L710 600.1L623 600Z" fill="#295886" stroke="#295886"></path><path d="M684 600L710 600.1L697 547.3Z" fill="#628ecb" stroke="#628ecb"></path><path d="M806 512.3L698 532.3L769 591.1Z" fill="#2f5d8d" stroke="#2f5d8d"></path><path d="M710 600.1L719 600L697 547.3Z" fill="#4b78af" stroke="#4b78af"></path><path d="M233 600L250 600L235 564.3Z" fill="#2f5d8d" stroke="#2f5d8d"></path><path d="M235 564.3L250 600L289 589.1Z" fill="#2f5d8d" stroke="#2f5d8d"></path><path d="M289 589.1L250 600L322 600Z" fill="#346293" stroke="#346293"></path><path d="M322 600L250 600L375 602.1Z" fill="#295886" stroke="#295886"></path><path d="M217 600L235 564.3L185 600Z" fill="#4b78af" stroke="#4b78af"></path><path d="M856 183.6L817 227.3L900 234.3Z" fill="#628ecb" stroke="#628ecb"></path><path d="M819 121.7L823 105.7L812 116.4Z" fill="#295886" stroke="#295886"></path><path d="M900 234.3L817 227.3L820 241.1Z" fill="#5683bd" stroke="#5683bd"></path><path d="M769 591.1L698 532.3L697 547.3Z" fill="#2f5d8d" stroke="#2f5d8d"></path><path d="M803 502.4L806 512.3L809 490.4Z" fill="#3a679a" stroke="#3a679a"></path><path d="M809 490.4L854 419.6L821 407.6Z" fill="#295886" stroke="#295886"></path><path d="M873 504.1L854 419.6L809 490.4Z" fill="#4572a8" stroke="#4572a8"></path><path d="M839 353L871 351.7L817 326Z" fill="#295886" stroke="#295886"></path><path d="M854 419.6L871 351.7L839 353Z" fill="#2f5d8d" stroke="#2f5d8d"></path><path d="M137 514.1L164 520.1L159 467.3Z" fill="#5c88c4" stroke="#5c88c4"></path><path d="M159 467.3L164 520.1L197 517.4Z" fill="#4b78af" stroke="#4b78af"></path><path d="M397 -9.1L224 0L304 0Z" fill="#5c88c4" stroke="#5c88c4"></path><path d="M304 0L224 0L272 70.7Z" fill="#628ecb" stroke="#628ecb"></path><path d="M807 2.9L769 84.6L795 97.7Z" fill="#5683bd" stroke="#5683bd"></path><path d="M724 0L750 0L417 -10.1Z" fill="#295886" stroke="#295886"></path><path d="M217 600L233 600L235 564.3Z" fill="#5683bd" stroke="#5683bd"></path><path d="M250 600L54 610.1L375 602.1Z" fill="#3f6da1" stroke="#3f6da1"></path><path d="M102 169.6L97 205.4L136 188.3Z" fill="#4b78af" stroke="#4b78af"></path><path d="M85 406.6L173 354.9L153 309.1Z" fill="#3f6da1" stroke="#3f6da1"></path><path d="M102 169.6L136 188.3L136 163.3Z" fill="#295886" stroke="#295886"></path><path d="M131 97.9L176 124.7L167 89.7Z" fill="#5c88c4" stroke="#5c88c4"></path><path d="M131 97.9L102 169.6L136 163.3Z" fill="#4b78af" stroke="#4b78af"></path><path d="M109 83.6L127 17.9L98 60.9Z" fill="#4b78af" stroke="#4b78af"></path><path d="M854 419.6L885 354L871 351.7Z" fill="#5683bd" stroke="#5683bd"></path><path d="M871 351.7L900 306L817 326Z" fill="#295886" stroke="#295886"></path><path d="M76 259L156 303L116 223.1Z" fill="#346293" stroke="#346293"></path><path d="M185 600L235 564.3L197 517.4Z" fill="#2f5d8d" stroke="#2f5d8d"></path><path d="M233 600L54 610.1L250 600Z" fill="#517db6" stroke="#517db6"></path><path d="M397 -9.1L200 0L224 0Z" fill="#4b78af" stroke="#4b78af"></path><path d="M224 0L200 0L214 79.9Z" fill="#2f5d8d" stroke="#2f5d8d"></path><path d="M163 0L200 0L0 -7.1Z" fill="#3f6da1" stroke="#3f6da1"></path><path d="M68 241.1L116 223.1L97 205.4Z" fill="#517db6" stroke="#517db6"></path><path d="M68 241.1L76 259L116 223.1Z" fill="#4572a8" stroke="#4572a8"></path><path d="M719 600L769 591.1L697 547.3Z" fill="#628ecb" stroke="#628ecb"></path><path d="M806 512.3L838 512.3L809 490.4Z" fill="#2f5d8d" stroke="#2f5d8d"></path><path d="M120 500.3L137 514.1L159 467.3Z" fill="#5683bd" stroke="#5683bd"></path><path d="M145 568.3L185 600L197 517.4Z" fill="#2f5d8d" stroke="#2f5d8d"></path><path d="M54 332.9L85 406.6L153 309.1Z" fill="#5683bd" stroke="#5683bd"></path><path d="M85 475.6L120 500.3L159 467.3Z" fill="#3f6da1" stroke="#3f6da1"></path><path d="M843 551.3L838 512.3L806 512.3Z" fill="#295886" stroke="#295886"></path><path d="M900 412.7L900 335.9L885 354Z" fill="#517db6" stroke="#517db6"></path><path d="M900 335.9L871 351.7L885 354Z" fill="#5c88c4" stroke="#5c88c4"></path><path d="M900 335.9L900 306L871 351.7Z" fill="#3a679a" stroke="#3a679a"></path><path d="M900 412.7L885 354L854 419.6Z" fill="#295886" stroke="#295886"></path><path d="M85 475.6L159 467.3L101 423.7Z" fill="#2f5d8d" stroke="#2f5d8d"></path><path d="M145 568.3L197 517.4L164 520.1Z" fill="#5683bd" stroke="#5683bd"></path><path d="M902 241.1L900 234.3L820 241.1Z" fill="#3f6da1" stroke="#3f6da1"></path><path d="M856 183.6L900 126.6L819 121.7Z" fill="#4572a8" stroke="#4572a8"></path><path d="M80 171.6L68 241.1L97 205.4Z" fill="#2f5d8d" stroke="#2f5d8d"></path><path d="M76 259L60 289L153 309.1Z" fill="#346293" stroke="#346293"></path><path d="M80 171.6L97 205.4L102 169.6Z" fill="#2f5d8d" stroke="#2f5d8d"></path><path d="M900 306L902 241.1L820 241.1Z" fill="#628ecb" stroke="#628ecb"></path><path d="M906 217.4L902 241.1L900 306Z" fill="#295886" stroke="#295886"></path><path d="M81 78.9L80 171.6L102 169.6Z" fill="#2f5d8d" stroke="#2f5d8d"></path><path d="M906 217.4L900 211.1L900 234.3Z" fill="#346293" stroke="#346293"></path><path d="M900 234.3L900 211.1L856 183.6Z" fill="#517db6" stroke="#517db6"></path><path d="M858 65.9L807 2.9L795 97.7Z" fill="#4b78af" stroke="#4b78af"></path><path d="M68 241.1L60 289L76 259Z" fill="#517db6" stroke="#517db6"></path><path d="M85 406.6L83 433.7L101 423.7Z" fill="#4b78af" stroke="#4b78af"></path><path d="M52 427.4L83 433.7L85 406.6Z" fill="#5683bd" stroke="#5683bd"></path><path d="M145 568.3L164 520.1L137 514.1Z" fill="#4b78af" stroke="#4b78af"></path><path d="M217 600L54 610.1L233 600Z" fill="#3f6da1" stroke="#3f6da1"></path><path d="M900 335.9L906 217.4L900 306Z" fill="#4b78af" stroke="#4b78af"></path><path d="M902 241.1L906 217.4L900 234.3Z" fill="#517db6" stroke="#517db6"></path><path d="M900 211.1L900 181.4L856 183.6Z" fill="#2f5d8d" stroke="#2f5d8d"></path><path d="M906 217.4L900 181.4L900 211.1Z" fill="#2f5d8d" stroke="#2f5d8d"></path><path d="M127 17.9L167 89.7L180 81.9Z" fill="#3f6da1" stroke="#3f6da1"></path><path d="M131 97.9L109 83.6L102 169.6Z" fill="#295886" stroke="#295886"></path><path d="M900 458.6L900 412.7L854 419.6Z" fill="#5c88c4" stroke="#5c88c4"></path><path d="M900 335.9L900 412.7L906 217.4Z" fill="#295886" stroke="#295886"></path><path d="M60 289L54 332.9L153 309.1Z" fill="#628ecb" stroke="#628ecb"></path><path d="M858 65.9L795 97.7L823 105.7Z" fill="#3a679a" stroke="#3a679a"></path><path d="M807 2.9L805 0L750 0Z" fill="#3f6da1" stroke="#3f6da1"></path><path d="M750 0L805 0L417 -10.1Z" fill="#5c88c4" stroke="#5c88c4"></path><path d="M112 0L163 0L0 -7.1Z" fill="#3f6da1" stroke="#3f6da1"></path><path d="M200 0L163 0L180 81.9Z" fill="#4572a8" stroke="#4572a8"></path><path d="M78 557.1L145 568.3L137 514.1Z" fill="#5683bd" stroke="#5683bd"></path><path d="M125 600L145 568.3L78 557.1Z" fill="#4b78af" stroke="#4b78af"></path><path d="M900 126.6L858 65.9L823 105.7Z" fill="#346293" stroke="#346293"></path><path d="M807 2.9L888 0L805 0Z" fill="#4572a8" stroke="#4572a8"></path><path d="M58 470.6L85 475.6L83 433.7Z" fill="#4572a8" stroke="#4572a8"></path><path d="M83 433.7L85 475.6L101 423.7Z" fill="#4572a8" stroke="#4572a8"></path><path d="M769 591.1L843 551.3L806 512.3Z" fill="#5683bd" stroke="#5683bd"></path><path d="M838 512.3L873 504.1L809 490.4Z" fill="#295886" stroke="#295886"></path><path d="M843 551.3L873 504.1L838 512.3Z" fill="#2f5d8d" stroke="#2f5d8d"></path><path d="M873 504.1L900 458.6L854 419.6Z" fill="#4b78af" stroke="#4b78af"></path><path d="M900 412.7L900 458.6L906 217.4Z" fill="#5683bd" stroke="#5683bd"></path><path d="M900 181.4L900 126.6L856 183.6Z" fill="#4b78af" stroke="#4b78af"></path><path d="M906 217.4L900 126.6L900 181.4Z" fill="#3f6da1" stroke="#3f6da1"></path><path d="M127 17.9L109 83.6L167 89.7Z" fill="#4572a8" stroke="#4572a8"></path><path d="M109 83.6L81 78.9L102 169.6Z" fill="#2f5d8d" stroke="#2f5d8d"></path><path d="M16 239.1L60 289L68 241.1Z" fill="#628ecb" stroke="#628ecb"></path><path d="M16 239.1L27 303.9L60 289Z" fill="#517db6" stroke="#517db6"></path><path d="M163 0L127 17.9L180 81.9Z" fill="#4b78af" stroke="#4b78af"></path><path d="M34 396.7L52 427.4L85 406.6Z" fill="#3f6da1" stroke="#3f6da1"></path><path d="M85 475.6L78 557.1L120 500.3Z" fill="#5c88c4" stroke="#5c88c4"></path><path d="M719 600L821 598.1L769 591.1Z" fill="#346293" stroke="#346293"></path><path d="M769 591.1L821 598.1L843 551.3Z" fill="#3a679a" stroke="#3a679a"></path><path d="M900 481.4L900 477.3L873 504.1Z" fill="#5c88c4" stroke="#5c88c4"></path><path d="M873 504.1L900 477.3L900 458.6Z" fill="#5c88c4" stroke="#5c88c4"></path><path d="M900 481.4L873 504.1L900 515.1Z" fill="#4572a8" stroke="#4572a8"></path><path d="M900 458.6L900 477.3L906 217.4Z" fill="#346293" stroke="#346293"></path><path d="M900 515.1L873 504.1L843 551.3Z" fill="#628ecb" stroke="#628ecb"></path><path d="M900 477.3L900 481.4L906 217.4Z" fill="#295886" stroke="#295886"></path><path d="M83 34.7L81 78.9L98 60.9Z" fill="#3f6da1" stroke="#3f6da1"></path><path d="M98 60.9L81 78.9L109 83.6Z" fill="#4572a8" stroke="#4572a8"></path><path d="M60 289L27 303.9L54 332.9Z" fill="#3f6da1" stroke="#3f6da1"></path><path d="M16 239.1L68 241.1L80 171.6Z" fill="#346293" stroke="#346293"></path><path d="M54 332.9L34 396.7L85 406.6Z" fill="#5683bd" stroke="#5683bd"></path><path d="M42 497.4L58 470.6L0 508.4Z" fill="#628ecb" stroke="#628ecb"></path><path d="M52 427.4L58 470.6L83 433.7Z" fill="#346293" stroke="#346293"></path><path d="M0 376.6L34 396.7L54 332.9Z" fill="#4572a8" stroke="#4572a8"></path><path d="M898 600L900 515.1L843 551.3Z" fill="#346293" stroke="#346293"></path><path d="M900 481.4L900 515.1L906 217.4Z" fill="#4b78af" stroke="#4b78af"></path><path d="M906 217.4L900 70.7L900 126.6Z" fill="#517db6" stroke="#517db6"></path><path d="M900 126.6L900 70.7L858 65.9Z" fill="#295886" stroke="#295886"></path><path d="M858 65.9L888 0L807 2.9Z" fill="#5683bd" stroke="#5683bd"></path><path d="M0 223.4L16 239.1L13 160.3Z" fill="#3f6da1" stroke="#3f6da1"></path><path d="M27 303.9L0 317.9L54 332.9Z" fill="#3a679a" stroke="#3a679a"></path><path d="M78 557.1L137 514.1L120 500.3Z" fill="#5c88c4" stroke="#5c88c4"></path><path d="M145 568.3L125 600L185 600Z" fill="#2f5d8d" stroke="#2f5d8d"></path><path d="M185 600L54 610.1L217 600Z" fill="#4572a8" stroke="#4572a8"></path><path d="M127 17.9L83 34.7L98 60.9Z" fill="#5c88c4" stroke="#5c88c4"></path><path d="M0 223.4L0 254.3L16 239.1Z" fill="#3a679a" stroke="#3a679a"></path><path d="M163 0L112 0L127 17.9Z" fill="#3a679a" stroke="#3a679a"></path><path d="M67 0L112 0L0 -7.1Z" fill="#517db6" stroke="#517db6"></path><path d="M112 0L83 34.7L127 17.9Z" fill="#346293" stroke="#346293"></path><path d="M719 600L853 600L821 598.1Z" fill="#295886" stroke="#295886"></path><path d="M821 598.1L853 600L843 551.3Z" fill="#4b78af" stroke="#4b78af"></path><path d="M710 600.1L853 600L719 600Z" fill="#628ecb" stroke="#628ecb"></path><path d="M54 610.1L853 600L710 600.1Z" fill="#628ecb" stroke="#628ecb"></path><path d="M42 497.4L85 475.6L58 470.6Z" fill="#5c88c4" stroke="#5c88c4"></path><path d="M42 497.4L78 557.1L85 475.6Z" fill="#3f6da1" stroke="#3f6da1"></path><path d="M0 254.3L0 298L27 303.9Z" fill="#2f5d8d" stroke="#2f5d8d"></path><path d="M0 406.7L58 470.6L52 427.4Z" fill="#4572a8" stroke="#4572a8"></path><path d="M0 298L0 300.1L27 303.9Z" fill="#5683bd" stroke="#5683bd"></path><path d="M0 300.1L0 317.9L27 303.9Z" fill="#3f6da1" stroke="#3f6da1"></path><path d="M16 239.1L80 171.6L13 160.3Z" fill="#346293" stroke="#346293"></path><path d="M16 239.1L0 254.3L27 303.9Z" fill="#4572a8" stroke="#4572a8"></path><path d="M0 406.7L52 427.4L34 396.7Z" fill="#5c88c4" stroke="#5c88c4"></path><path d="M13 160.3L80 171.6L16 136.7Z" fill="#4b78af" stroke="#4b78af"></path><path d="M16 136.7L80 171.6L81 78.9Z" fill="#3f6da1" stroke="#3f6da1"></path><path d="M0 317.9L0 376.6L54 332.9Z" fill="#5c88c4" stroke="#5c88c4"></path><path d="M0 105.6L16 136.7L0 104.7Z" fill="#628ecb" stroke="#628ecb"></path><path d="M13 160.3L5 139.4L0 223.4Z" fill="#346293" stroke="#346293"></path><path d="M0 376.6L0 406.7L34 396.7Z" fill="#628ecb" stroke="#628ecb"></path><path d="M900 12.9L888 0L858 65.9Z" fill="#346293" stroke="#346293"></path><path d="M805 0L888 0L417 -10.1Z" fill="#5683bd" stroke="#5683bd"></path><path d="M906 217.4L900 12.9L900 70.7Z" fill="#4572a8" stroke="#4572a8"></path><path d="M900 70.7L900 12.9L858 65.9Z" fill="#346293" stroke="#346293"></path><path d="M0 105.6L5 139.4L16 136.7Z" fill="#5683bd" stroke="#5683bd"></path><path d="M16 136.7L5 139.4L13 160.3Z" fill="#5683bd" stroke="#5683bd"></path><path d="M906 217.4L900 0L900 12.9Z" fill="#295886" stroke="#295886"></path><path d="M900 12.9L900 0L888 0Z" fill="#628ecb" stroke="#628ecb"></path><path d="M888 0L900 0L417 -10.1Z" fill="#3a679a" stroke="#3a679a"></path><path d="M112 0L67 0L83 34.7Z" fill="#5c88c4" stroke="#5c88c4"></path><path d="M0 104.7L16 136.7L81 78.9Z" fill="#5c88c4" stroke="#5c88c4"></path><path d="M54 0L67 0L0 -7.1Z" fill="#5c88c4" stroke="#5c88c4"></path><path d="M853 600L898 600L843 551.3Z" fill="#3f6da1" stroke="#3f6da1"></path><path d="M54 610.1L898 600L853 600Z" fill="#5683bd" stroke="#5683bd"></path><path d="M54 610.1L900 600L898 600Z" fill="#295886" stroke="#295886"></path><path d="M898 600L900 600L900 515.1Z" fill="#628ecb" stroke="#628ecb"></path><path d="M900 515.1L900 600L906 217.4Z" fill="#2f5d8d" stroke="#2f5d8d"></path><path d="M0 104.7L81 78.9L83 34.7Z" fill="#4b78af" stroke="#4b78af"></path><path d="M5 139.4L0 105.6L0 223.4Z" fill="#346293" stroke="#346293"></path><path d="M0 0L0 104.7L83 34.7Z" fill="#3f6da1" stroke="#3f6da1"></path><path d="M0 0L54 0L0 -7.1Z" fill="#4572a8" stroke="#4572a8"></path><path d="M67 0L54 0L83 34.7Z" fill="#295886" stroke="#295886"></path><path d="M0 406.7L0 508.4L58 470.6Z" fill="#628ecb" stroke="#628ecb"></path><path d="M42 497.4L0 546.1L78 557.1Z" fill="#628ecb" stroke="#628ecb"></path><path d="M78 557.1L54 610.1L125 600Z" fill="#295886" stroke="#295886"></path><path d="M0 551.3L54 610.1L78 557.1Z" fill="#295886" stroke="#295886"></path><path d="M125 600L54 610.1L185 600Z" fill="#4572a8" stroke="#4572a8"></path><path d="M375 602.1L54 610.1L710 600.1Z" fill="#3a679a" stroke="#3a679a"></path><path d="M0 406.7L-5 530.3L0 508.4Z" fill="#3f6da1" stroke="#3f6da1"></path><path d="M0 508.4L-5 530.3L42 497.4Z" fill="#4572a8" stroke="#4572a8"></path><path d="M0 376.6L-5 530.3L0 406.7Z" fill="#628ecb" stroke="#628ecb"></path><path d="M0 317.9L-5 530.3L0 376.6Z" fill="#295886" stroke="#295886"></path><path d="M0 300.1L-5 530.3L0 317.9Z" fill="#346293" stroke="#346293"></path><path d="M0 298L-5 530.3L0 300.1Z" fill="#5c88c4" stroke="#5c88c4"></path><path d="M0 254.3L-5 530.3L0 298Z" fill="#517db6" stroke="#517db6"></path><path d="M-8 600L-5 530.3L0 254.3Z" fill="#628ecb" stroke="#628ecb"></path><path d="M-8 600L0 254.3L0 223.4Z" fill="#628ecb" stroke="#628ecb"></path><path d="M-8 600L0 223.4L0 105.6Z" fill="#3a679a" stroke="#3a679a"></path><path d="M-5 530.3L0 546.1L42 497.4Z" fill="#628ecb" stroke="#628ecb"></path><path d="M-5 530.3L0 551.3L0 546.1Z" fill="#3f6da1" stroke="#3f6da1"></path><path d="M0 546.1L0 551.3L78 557.1Z" fill="#4572a8" stroke="#4572a8"></path><path d="M54 0L0 0L83 34.7Z" fill="#2f5d8d" stroke="#2f5d8d"></path><path d="M0 104.7L-8 600L0 105.6Z" fill="#295886" stroke="#295886"></path><path d="M0 -7.1L200 0L397 -9.1Z" fill="#346293" stroke="#346293"></path><path d="M417 -10.1L0 -7.1L397 -9.1Z" fill="#295886" stroke="#295886"></path><path d="M0 0L-8 600L0 104.7Z" fill="#2f5d8d" stroke="#2f5d8d"></path><path d="M-8 600L0 600L0 551.3Z" fill="#517db6" stroke="#517db6"></path><path d="M0 551.3L0 600L54 610.1Z" fill="#346293" stroke="#346293"></path><path d="M0 -7.1L-8 600L0 0Z" fill="#295886" stroke="#295886"></path><path d="M-5 530.3L-8 600L0 551.3Z" fill="#4572a8" stroke="#4572a8"></path><path d="M0 600L-8 600L54 610.1Z" fill="#295886" stroke="#295886"></path></g></svg>